<svg width="20" height="20" viewBox="0 0 20 20" fill="none" xmlns="http://www.w3.org/2000/svg">
<path d="M14.168 15.0001C14.168 14.5398 14.5411 14.1667 15.0013 14.1667C15.4615 14.1667 15.8346 14.5398 15.8346 15.0001C15.8346 15.4603 15.4615 15.8334 15.0013 15.8334C14.5411 15.8334 14.168 15.4603 14.168 15.0001Z" stroke="#171C45" stroke-width="1.5" stroke-linecap="round" stroke-linejoin="round"/>
<path d="M9.16797 15.0001C9.16797 14.5398 9.54106 14.1667 10.0013 14.1667C10.4615 14.1667 10.8346 14.5398 10.8346 15.0001C10.8346 15.4603 10.4615 15.8334 10.0013 15.8334C9.54106 15.8334 9.16797 15.4603 9.16797 15.0001Z" stroke="#171C45" stroke-width="1.5" stroke-linecap="round" stroke-linejoin="round"/>
<path d="M4.16797 15.0001C4.16797 14.5398 4.54106 14.1667 5.0013 14.1667C5.46154 14.1667 5.83464 14.5398 5.83464 15.0001C5.83464 15.4603 5.46154 15.8334 5.0013 15.8334C4.54106 15.8334 4.16797 15.4603 4.16797 15.0001Z" stroke="#171C45" stroke-width="1.5" stroke-linecap="round" stroke-linejoin="round"/>
<path d="M14.168 10.0001C14.168 9.53984 14.5411 9.16675 15.0013 9.16675C15.4615 9.16675 15.8346 9.53984 15.8346 10.0001C15.8346 10.4603 15.4615 10.8334 15.0013 10.8334C14.5411 10.8334 14.168 10.4603 14.168 10.0001Z" stroke="#171C45" stroke-width="1.5" stroke-linecap="round" stroke-linejoin="round"/>
<path d="M9.16797 10.0001C9.16797 9.53984 9.54106 9.16675 10.0013 9.16675C10.4615 9.16675 10.8346 9.53984 10.8346 10.0001C10.8346 10.4603 10.4615 10.8334 10.0013 10.8334C9.54106 10.8334 9.16797 10.4603 9.16797 10.0001Z" stroke="#171C45" stroke-width="1.5" stroke-linecap="round" stroke-linejoin="round"/>
<path d="M4.16797 10.0001C4.16797 9.53984 4.54106 9.16675 5.0013 9.16675C5.46154 9.16675 5.83464 9.53984 5.83464 10.0001C5.83464 10.4603 5.46154 10.8334 5.0013 10.8334C4.54106 10.8334 4.16797 10.4603 4.16797 10.0001Z" stroke="#171C45" stroke-width="1.5" stroke-linecap="round" stroke-linejoin="round"/>
<path d="M14.168 5.00008C14.168 4.53984 14.5411 4.16675 15.0013 4.16675C15.4615 4.16675 15.8346 4.53984 15.8346 5.00008C15.8346 5.46032 15.4615 5.83341 15.0013 5.83341C14.5411 5.83341 14.168 5.46032 14.168 5.00008Z" stroke="#171C45" stroke-width="1.5" stroke-linecap="round" stroke-linejoin="round"/>
<path d="M9.16797 5.00008C9.16797 4.53984 9.54106 4.16675 10.0013 4.16675C10.4615 4.16675 10.8346 4.53984 10.8346 5.00008C10.8346 5.46032 10.4615 5.83341 10.0013 5.83341C9.54106 5.83341 9.16797 5.46032 9.16797 5.00008Z" stroke="#171C45" stroke-width="1.5" stroke-linecap="round" stroke-linejoin="round"/>
<path d="M4.16797 5.00008C4.16797 4.53984 4.54106 4.16675 5.0013 4.16675C5.46154 4.16675 5.83464 4.53984 5.83464 5.00008C5.83464 5.46032 5.46154 5.83341 5.0013 5.83341C4.54106 5.83341 4.16797 5.46032 4.16797 5.00008Z" stroke="#171C45" stroke-width="1.5" stroke-linecap="round" stroke-linejoin="round"/>
</svg>
