<svg width="24" height="24" viewBox="0 0 24 24" fill="none" xmlns="http://www.w3.org/2000/svg">
<path d="M14.9851 8.47434L12.4528 2.98442C12.2741 2.59699 11.7235 2.59699 11.5447 2.98442L9.0125 8.47434C8.93966 8.63224 8.79002 8.74096 8.61734 8.76144L2.61361 9.47327C2.18992 9.52351 2.01976 10.0472 2.33301 10.3369L6.77172 14.4417C6.89938 14.5597 6.95654 14.7357 6.92265 14.9062L5.7444 20.8361C5.66124 21.2545 6.10673 21.5782 6.47903 21.3698L11.7546 18.4168C11.9063 18.3319 12.0913 18.3319 12.243 18.4168L17.5185 21.3698C17.8908 21.5782 18.3363 21.2545 18.2532 20.8361L17.0749 14.9062C17.041 14.7357 17.0982 14.5597 17.2258 14.4417L21.6645 10.3369C21.9778 10.0472 21.8076 9.52351 21.3839 9.47327L15.3802 8.76144C15.2075 8.74096 15.0579 8.63224 14.9851 8.47434Z" stroke="#E78F35" stroke-width="2" stroke-linecap="round" stroke-linejoin="round"/>
</svg>
