<svg width="20" height="20" viewBox="0 0 20 20" fill="none" xmlns="http://www.w3.org/2000/svg">
<path d="M13.3333 17.5001V16.7501V17.5001ZM3.33333 17.5001L3.33333 18.2501L3.33333 17.5001ZM2.5 16.6667H3.25H2.5ZM2.5 9.16675L2.5 8.41675C2.08579 8.41675 1.75 8.75254 1.75 9.16675L2.5 9.16675ZM13.3333 9.16675V8.41675V9.16675ZM14.1667 10.0001L14.9167 10.0001L14.1667 10.0001ZM14.1667 16.6667H13.4167H14.1667ZM13.3333 16.7501L3.33333 16.7501L3.33333 18.2501L13.3333 18.2501L13.3333 16.7501ZM3.25 16.6667L3.25 9.16675L1.75 9.16675L1.75 16.6667H3.25ZM2.5 9.91675L13.3333 9.91675V8.41675L2.5 8.41675L2.5 9.91675ZM13.3333 9.91675C13.3794 9.91675 13.4167 9.95406 13.4167 10.0001L14.9167 10.0001C14.9167 9.12563 14.2078 8.41675 13.3333 8.41675V9.91675ZM3.33333 16.7501C3.28731 16.7501 3.25 16.7128 3.25 16.6667H1.75C1.75 17.5412 2.45888 18.2501 3.33333 18.2501L3.33333 16.7501ZM13.3333 18.2501C14.2078 18.2501 14.9167 17.5412 14.9167 16.6667H13.4167C13.4167 16.7128 13.3794 16.7501 13.3333 16.7501L13.3333 18.2501ZM13.4167 10.0001L13.4167 16.6667H14.9167L14.9167 10.0001L13.4167 10.0001Z" fill="#171C45"/>
<path d="M5.83203 4.16675L5.83203 3.41675C5.41782 3.41675 5.08203 3.75254 5.08203 4.16675L5.83203 4.16675ZM16.6654 4.16675V3.41675V4.16675ZM17.4987 5.00008L16.7487 5.00008V5.00008H17.4987ZM17.4987 11.6667H18.2487H17.4987ZM16.6654 12.5001V11.7501V12.5001ZM14.1654 11.7501C13.7512 11.7501 13.4154 12.0859 13.4154 12.5001C13.4154 12.9143 13.7512 13.2501 14.1654 13.2501V11.7501ZM5.08203 7.50008C5.08203 7.91429 5.41782 8.25008 5.83203 8.25008C6.24624 8.25008 6.58203 7.91429 6.58203 7.50008L5.08203 7.50008ZM5.83203 4.91675L16.6654 4.91675V3.41675L5.83203 3.41675L5.83203 4.91675ZM16.6654 11.7501H14.1654V13.2501H16.6654V11.7501ZM6.58203 7.50008L6.58203 4.16675L5.08203 4.16675L5.08203 7.50008L6.58203 7.50008ZM16.6654 4.91675C16.7114 4.91675 16.7487 4.95406 16.7487 5.00008L18.2487 5.00008C18.2487 4.12563 17.5398 3.41675 16.6654 3.41675V4.91675ZM16.7487 11.6667C16.7487 11.7128 16.7114 11.7501 16.6654 11.7501V13.2501C17.5398 13.2501 18.2487 12.5412 18.2487 11.6667H16.7487ZM16.7487 5.00008V11.6667H18.2487V5.00008H16.7487Z" fill="#171C45"/>
<path d="M8.33333 9.16667L7.28726 7.82172C7.12938 7.61873 6.88663 7.5 6.62947 7.5H3.33333C2.8731 7.5 2.5 7.8731 2.5 8.33333V9.16667" stroke="#171C45" stroke-width="1.5" stroke-linecap="round" stroke-linejoin="round"/>
<path d="M11.6654 4.16667L10.6193 2.82172C10.4614 2.61873 10.2187 2.5 9.9615 2.5H6.66536C6.20513 2.5 5.83203 2.8731 5.83203 3.33333V4.16667" stroke="#171C45" stroke-width="1.5" stroke-linecap="round" stroke-linejoin="round"/>
</svg>
