<svg width="20" height="12" viewBox="0 0 20 12" fill="none" xmlns="http://www.w3.org/2000/svg">
<path d="M10 0.167969C9.22645 0.167969 8.48459 0.47526 7.93761 1.02224C7.39062 1.56922 7.08333 2.31109 7.08333 3.08464C7.08333 3.85818 7.39062 4.60005 7.93761 5.14703C8.48459 5.69401 9.22645 6.0013 10 6.0013C10.7735 6.0013 11.5154 5.69401 12.0624 5.14703C12.6094 4.60005 12.9167 3.85818 12.9167 3.08464C12.9167 2.31109 12.6094 1.56922 12.0624 1.02224C11.5154 0.47526 10.7735 0.167969 10 0.167969ZM10 1.83464C10.3315 1.83464 10.6495 1.96633 10.8839 2.20075C11.1183 2.43517 11.25 2.75312 11.25 3.08464C11.25 3.41616 11.1183 3.7341 10.8839 3.96852C10.6495 4.20294 10.3315 4.33464 10 4.33464C9.66848 4.33464 9.35054 4.20294 9.11612 3.96852C8.8817 3.7341 8.75 3.41616 8.75 3.08464C8.75 2.75312 8.8817 2.43517 9.11612 2.20075C9.35054 1.96633 9.66848 1.83464 10 1.83464ZM4.58333 2.66797C4.0308 2.66797 3.5009 2.88746 3.11019 3.27816C2.71949 3.66886 2.5 4.19877 2.5 4.7513C2.5 5.53464 2.94167 6.20964 3.575 6.56797C3.875 6.73464 4.21667 6.83464 4.58333 6.83464C4.95 6.83464 5.29167 6.73464 5.59167 6.56797C5.9 6.39297 6.15833 6.14297 6.35 5.84297C5.74167 5.0513 5.41667 4.08464 5.41667 3.08464C5.41667 3.00964 5.41667 2.9263 5.41667 2.8513C5.16667 2.73464 4.88333 2.66797 4.58333 2.66797ZM15.4167 2.66797C15.1167 2.66797 14.8333 2.73464 14.5833 2.8513C14.5833 2.9263 14.5833 3.00964 14.5833 3.08464C14.5833 4.08464 14.2583 5.0513 13.65 5.84297C13.75 6.0013 13.8583 6.1263 13.9833 6.2513C14.1167 6.3763 14.25 6.48464 14.4083 6.56797C14.7083 6.73464 15.05 6.83464 15.4167 6.83464C15.7833 6.83464 16.125 6.73464 16.425 6.56797C17.0583 6.20964 17.5 5.53464 17.5 4.7513C17.5 4.19877 17.2805 3.66886 16.8898 3.27816C16.4991 2.88746 15.9692 2.66797 15.4167 2.66797ZM10 7.66797C8.05 7.66797 4.16667 8.64297 4.16667 10.5846V11.8346H15.8333V10.5846C15.8333 8.64297 11.95 7.66797 10 7.66797ZM3.925 8.1263C2.31667 8.31797 0 9.13464 0 10.5846V11.8346H2.5V10.2263C2.5 9.38464 3.075 8.68464 3.925 8.1263ZM16.075 8.1263C16.925 8.68464 17.5 9.38464 17.5 10.2263V11.8346H20V10.5846C20 9.13464 17.6833 8.31797 16.075 8.1263ZM10 9.33464C11.275 9.33464 12.7 9.7513 13.525 10.168H6.475C7.3 9.7513 8.725 9.33464 10 9.33464Z" fill="#171C45"/>
</svg>
