<svg width="177" height="34" viewBox="0 0 177 34" fill="none" xmlns="http://www.w3.org/2000/svg">
<g clip-path="url(#clip0_1243_1220)">
<path d="M49.5228 26.1448C50.1246 25.2163 50.4255 24.1517 50.4255 22.9512C50.4255 22.032 50.295 21.2101 50.0576 20.4668C49.8472 19.8079 49.5299 19.2276 49.1326 18.707L44.1599 19.305L39.7913 19.8302L34.4883 20.4668V34.6284H39.7913V29.3385H41.2863C41.6812 29.3385 41.9868 29.4088 42.2018 29.5495C42.4193 29.6902 42.6014 29.9294 42.7531 30.2659L44.6712 34.6284H50.1998L48.1125 29.8719C47.9244 29.4416 47.7552 29.1134 47.6047 28.8883C47.4531 28.6632 47.2756 28.4662 47.0688 28.2974C48.1031 27.7909 48.9199 27.0734 49.5228 26.1448ZM44.375 24.6816C43.9519 25.085 43.3548 25.2866 42.5838 25.2866H39.7913V20.5594H42.7542C44.2574 20.5594 45.0108 21.3567 45.0108 22.9512C45.0096 23.7015 44.7969 24.2783 44.375 24.6816Z" fill="white"/>
<path d="M53.668 20.4671V34.6286H67.4332V30.5768H58.971V27.6223H66.3895V23.5142H58.971V20.5597H67.4332V20.4671V16.5078L53.668 18.1621V20.4671Z" fill="white"/>
<path d="M80.0724 25.7089L75.5592 16.5078H70.3984V34.6286H75.7002V25.5682L78.6338 31.5335H81.4828L84.3893 25.5682V34.6286H89.6923V16.5078H84.5574L80.0724 25.7089Z" fill="white"/>
<path d="M102.214 16.2266C99.1298 16.2266 96.8121 16.9675 95.2607 18.4495C93.7093 19.9314 92.9336 22.3231 92.9336 25.6246C92.9336 28.8323 93.714 31.1819 95.2748 32.6732C96.8356 34.1645 99.1486 34.9101 102.214 34.9101C105.278 34.9101 107.591 34.1598 109.153 32.6579C110.712 31.1584 111.493 28.8136 111.493 25.6235C111.493 22.3407 110.718 19.9537 109.167 18.4624C107.616 16.971 105.298 16.2266 102.214 16.2266ZM105.162 29.2685C104.549 30.0282 103.569 30.4069 102.214 30.4069C100.859 30.4069 99.8773 30.0282 99.2662 29.2685C98.6538 28.5088 98.3494 27.2941 98.3494 25.6246C98.3494 23.8625 98.6503 22.6045 99.2521 21.8541C99.855 21.1038 100.842 20.7286 102.215 20.7286C103.588 20.7286 104.575 21.1038 105.177 21.8541C105.78 22.6045 106.081 23.8613 106.081 25.6246C106.078 27.2941 105.771 28.5076 105.162 29.2685Z" fill="white"/>
<path d="M112.059 20.446H117.164V34.6286H122.466V20.446H127.573V16.5078H112.059V20.446Z" fill="white"/>
<path d="M130.25 34.6286H144.015V30.5768H135.553V27.6223H142.972V23.5142H135.553V20.5597H144.015V16.5078H130.25V34.6286Z" fill="white"/>
<path d="M152.278 16.5078H146.977V34.6286H160.458V30.5768H152.278V16.5078Z" fill="white"/>
<path d="M171.349 16.5078L167.68 23.3453L164.014 16.5078H158.484L165.03 27.9881V34.6286H170.332V27.9881L176.877 16.5078H171.349Z" fill="white"/>
<path d="M11.565 6.7531H5.30299V0H0V18.1208H5.30299V11.3677H11.565V18.1208H16.868V0H11.565V6.7531Z" fill="#48C0F1"/>
<path d="M25.9788 0H20.6758V18.1208H25.9788V0Z" fill="#48C0F1"/>
<path d="M35.0909 14.1616V12.8309H36.5859C36.9808 12.8309 37.2864 12.9012 37.5014 13.0419C37.7189 13.1826 37.901 13.4218 38.0527 13.7594L38.229 14.1616L39.4583 16.959L44.431 16.361L44.7108 16.3282L43.7599 14.1616L43.4132 13.3655C43.2252 12.9341 43.0559 12.6058 42.9055 12.3807C42.7539 12.1556 42.5764 11.9586 42.3696 11.7898C43.4038 11.2833 44.2207 10.5658 44.8236 9.63724C45.4254 8.70869 45.7262 7.64414 45.7262 6.44359C45.7262 4.47393 45.1809 2.90759 44.0902 1.74455C42.9995 0.581517 41.3823 0 39.2385 0H29.7891V14.1616V18.1208L35.0921 17.4842V14.1616H35.0909ZM35.0909 4.05186H38.0538C39.557 4.05186 40.3104 4.8491 40.3104 6.44359C40.3104 7.19393 40.0977 7.77076 39.6758 8.17407C39.2526 8.57738 38.6556 8.77903 37.8846 8.77903H35.0921V4.05186H35.0909Z" fill="#48C0F1"/>
<path d="M62.734 14.069H54.2717V11.1145H61.6903V7.00634H54.2717V4.05186H62.734V0H48.9688V14.1616V15.8159L62.734 14.1616V14.069Z" fill="#48C0F1"/>
</g>
<defs>
<clipPath id="clip0_1243_1220">
<rect width="176.296" height="34" fill="white"/>
</clipPath>
</defs>
</svg>
