<svg width="23" height="28" viewBox="0 0 23 28" fill="none" xmlns="http://www.w3.org/2000/svg">
<path d="M17.3333 20.668H5.33333V12.0013C5.33333 8.66797 8 6.0013 11.3333 6.0013C14.6667 6.0013 17.3333 8.66797 17.3333 12.0013V20.668ZM20 19.3346V12.0013C20 7.90797 17.1467 4.4813 13.3333 3.57464V2.66797C13.3333 2.13754 13.1226 1.62883 12.7475 1.25376C12.3725 0.878682 11.8638 0.667969 11.3333 0.667969C10.8029 0.667969 10.2942 0.878682 9.91912 1.25376C9.54405 1.62883 9.33333 2.13754 9.33333 2.66797V3.57464C5.50667 4.4813 2.66667 7.90797 2.66667 12.0013V19.3346L0 22.0013V23.3346H22.6667V22.0013L20 19.3346ZM11.3333 27.3346C12.0406 27.3346 12.7189 27.0537 13.2189 26.5536C13.719 26.0535 14 25.3752 14 24.668H8.66667C8.66667 25.3752 8.94762 26.0535 9.44771 26.5536C9.94781 27.0537 10.6261 27.3346 11.3333 27.3346Z" fill="white"/>
</svg>
