<svg width="26" height="28" viewBox="0 0 26 28" fill="none" xmlns="http://www.w3.org/2000/svg">
<path d="M12.9998 8.66797C14.4143 8.66797 15.7708 9.22987 16.771 10.2301C17.7712 11.2303 18.3331 12.5868 18.3331 14.0013C18.3331 15.4158 17.7712 16.7723 16.771 17.7725C15.7708 18.7727 14.4143 19.3346 12.9998 19.3346C11.5853 19.3346 10.2287 18.7727 9.22855 17.7725C8.22836 16.7723 7.66645 15.4158 7.66645 14.0013C7.66645 12.5868 8.22836 11.2303 9.22855 10.2301C10.2287 9.22987 11.5853 8.66797 12.9998 8.66797V8.66797ZM12.9998 11.3346C12.2925 11.3346 11.6143 11.6156 11.1142 12.1157C10.6141 12.6158 10.3331 13.2941 10.3331 14.0013C10.3331 14.7085 10.6141 15.3868 11.1142 15.8869C11.6143 16.387 12.2925 16.668 12.9998 16.668C13.707 16.668 14.3853 16.387 14.8854 15.8869C15.3855 15.3868 15.6665 14.7085 15.6665 14.0013C15.6665 13.2941 15.3855 12.6158 14.8854 12.1157C14.3853 11.6156 13.707 11.3346 12.9998 11.3346ZM10.3331 27.3346C9.99979 27.3346 9.71979 27.0946 9.66645 26.7746L9.17312 23.2413C8.33312 22.908 7.61312 22.4546 6.91979 21.9213L3.59979 23.268C3.30645 23.3746 2.94645 23.268 2.78645 22.9746L0.119786 18.3613C-0.0535475 18.068 0.0264527 17.708 0.279786 17.508L3.09312 15.2946L2.99979 14.0013L3.09312 12.668L0.279786 10.4946C0.0264527 10.2946 -0.0535475 9.93464 0.119786 9.6413L2.78645 5.02797C2.94645 4.73464 3.30645 4.61464 3.59979 4.73464L6.91979 6.06797C7.61312 5.54797 8.33312 5.09464 9.17312 4.7613L9.66645 1.22797C9.71979 0.907969 9.99979 0.667969 10.3331 0.667969H15.6665C15.9998 0.667969 16.2798 0.907969 16.3331 1.22797L16.8265 4.7613C17.6665 5.09464 18.3865 5.54797 19.0798 6.06797L22.3998 4.73464C22.6931 4.61464 23.0531 4.73464 23.2131 5.02797L25.8798 9.6413C26.0531 9.93464 25.9731 10.2946 25.7198 10.4946L22.9065 12.668L22.9998 14.0013L22.9065 15.3346L25.7198 17.508C25.9731 17.708 26.0531 18.068 25.8798 18.3613L23.2131 22.9746C23.0531 23.268 22.6931 23.388 22.3998 23.268L19.0798 21.9346C18.3865 22.4546 17.6665 22.908 16.8265 23.2413L16.3331 26.7746C16.2798 27.0946 15.9998 27.3346 15.6665 27.3346H10.3331ZM11.9998 3.33464L11.5065 6.81464C9.90645 7.14797 8.49312 8.0013 7.46645 9.18797L4.25312 7.8013L3.25312 9.53464L6.06645 11.6013C5.53312 13.1613 5.53312 14.8546 6.06645 16.4013L3.23979 18.4813L4.23979 20.2146L7.47979 18.828C8.50645 20.0013 9.90645 20.8546 11.4931 21.1746L11.9865 24.668H14.0131L14.5065 21.188C16.0931 20.8546 17.4931 20.0013 18.5198 18.828L21.7598 20.2146L22.7598 18.4813L19.9331 16.4146C20.4665 14.8546 20.4665 13.1613 19.9331 11.6013L22.7465 9.53464L21.7465 7.8013L18.5331 9.18797C17.5065 8.0013 16.0931 7.14797 14.4931 6.82797L13.9998 3.33464H11.9998Z" fill="white"/>
</svg>
