<svg width="16" height="10" viewBox="0 0 16 10" fill="none" xmlns="http://www.w3.org/2000/svg"><path d="M0.292893 7.9323C-0.0976315 8.32282 -0.0976314 8.95599 0.292893 9.34651C0.683417 9.73704 1.31658 9.73704 1.70711 9.34651L0.292893 7.9323ZM8 1.6394L8.70711 0.932298C8.51957 0.744761 8.26522 0.639404 8 0.639405C7.73478 0.639405 7.48043 0.744761 7.29289 0.932298L8 1.6394ZM14.2929 9.34651C14.6834 9.73704 15.3166 9.73704 15.7071 9.34651C16.0976 8.95599 16.0976 8.32282 15.7071 7.9323L14.2929 9.34651ZM1.70711 9.34651L8.70711 2.34651L7.29289 0.932298L0.292893 7.9323L1.70711 9.34651ZM7.29289 2.34651L14.2929 9.34651L15.7071 7.9323L8.70711 0.932298L7.29289 2.34651Z" fill="#171C45"/></svg>
