<svg width="140" height="140" viewBox="0 0 140 140" fill="none" xmlns="http://www.w3.org/2000/svg">
<path fill-rule="evenodd" clip-rule="evenodd" d="M18.2609 70C18.2609 98.5747 41.4253 121.739 70 121.739C98.5747 121.739 121.739 98.5747 121.739 70C121.739 41.4253 98.5747 18.2609 70 18.2609C41.4252 18.2609 18.2609 41.4253 18.2609 70ZM70 140C31.3401 140 -1.36992e-06 108.66 -3.0598e-06 70C-4.74967e-06 31.3401 31.34 5.96652e-05 70 5.79754e-05C108.66 5.62855e-05 140 31.3401 140 70C140 108.66 108.66 140 70 140Z" fill="white"/>
</svg>
