<svg width="132" height="24" viewBox="0 0 132 24" fill="none" xmlns="http://www.w3.org/2000/svg">
<path d="M14.9851 8.47434L12.4528 2.98442C12.2741 2.59699 11.7235 2.59699 11.5447 2.98442L9.0125 8.47434C8.93966 8.63224 8.79002 8.74096 8.61734 8.76144L2.61361 9.47327C2.18992 9.52351 2.01976 10.0472 2.33301 10.3369L6.77172 14.4417C6.89938 14.5597 6.95654 14.7357 6.92265 14.9062L5.7444 20.8361C5.66124 21.2545 6.10673 21.5782 6.47903 21.3698L11.7546 18.4168C11.9063 18.3319 12.0913 18.3319 12.243 18.4168L17.5185 21.3698C17.8908 21.5782 18.3363 21.2545 18.2532 20.8361L17.0749 14.9062C17.041 14.7357 17.0982 14.5597 17.2258 14.4417L21.6645 10.3369C21.9778 10.0472 21.8076 9.52351 21.3839 9.47327L15.3802 8.76144C15.2075 8.74096 15.0579 8.63224 14.9851 8.47434Z" stroke="#E78F35" stroke-width="2" stroke-linecap="round" stroke-linejoin="round"/>
<path d="M37.34 16.84C38.28 17.68 39.64 18.22 41.26 18.22C45.2 18.22 47.46 15.36 47.46 11.34C47.46 7.56 45.76 4.44 41.72 4.44C38.68 4.44 36.6 6.42 36.6 9.02C36.6 11.86 38.76 13.34 41.16 13.34C42.62 13.34 43.96 12.52 44.6 11.62V11.9C44.6 13.92 43.4 15.74 41.26 15.74C40.08 15.74 39.32 15.38 38.6 14.72L37.34 16.84ZM44.56 9.7C43.94 10.48 42.96 10.94 41.96 10.94C40.68 10.94 39.5 10.32 39.5 8.9C39.5 7.96 40.32 6.9 41.84 6.9C43.74 6.9 44.46 8.42 44.56 9.7ZM49.068 14.54C49.068 17.04 51.628 18.24 54.428 18.24C57.228 18.24 59.788 17.02 59.788 14.54C59.788 12.92 58.508 11.68 56.908 11.12C58.388 10.62 59.568 9.64 59.568 7.98C59.568 5.48 56.888 4.46 54.428 4.46C51.948 4.46 49.288 5.48 49.288 7.98C49.288 9.64 50.448 10.62 51.928 11.12C50.328 11.68 49.068 12.92 49.068 14.54ZM56.668 8.42C56.668 9.46 55.248 9.92 54.428 10.04C53.608 9.92 52.168 9.46 52.168 8.42C52.168 7.48 53.108 6.9 54.428 6.9C55.728 6.9 56.668 7.48 56.668 8.42ZM56.908 14.2C56.908 15.18 55.788 15.8 54.428 15.8C53.028 15.8 51.948 15.18 51.948 14.2C51.948 13.04 53.588 12.48 54.428 12.38C55.248 12.48 56.908 13.04 56.908 14.2ZM61.2169 7.82C61.2169 9.68 62.5569 11.1 64.5969 11.1C66.6569 11.1 67.9969 9.68 67.9969 7.82C67.9969 5.94 66.6569 4.46 64.5969 4.46C62.5569 4.46 61.2169 5.94 61.2169 7.82ZM64.7969 18L73.3369 4.66H71.8169L63.2969 18H64.7969ZM66.1769 7.82C66.1769 8.86 65.5169 9.54 64.5969 9.54C63.6969 9.54 63.0169 8.86 63.0169 7.82C63.0169 6.7 63.6969 6.04 64.5969 6.04C65.5169 6.04 66.1769 6.7 66.1769 7.82ZM68.5569 14.94C68.5569 16.8 69.8969 18.24 71.9369 18.24C73.9769 18.24 75.3369 16.8 75.3369 14.94C75.3369 13.06 73.9769 11.58 71.9369 11.58C69.8969 11.58 68.5569 13.06 68.5569 14.94ZM73.5369 14.94C73.5369 16.02 72.8569 16.68 71.9369 16.68C71.0169 16.68 70.3569 16.02 70.3569 14.94C70.3569 13.84 71.0169 13.16 71.9369 13.16C72.8569 13.16 73.5369 13.84 73.5369 14.94ZM81.7708 16.74C82.7908 17.68 84.4108 18.24 86.0908 18.24C88.7708 18.24 90.2708 16.92 90.2708 15.14C90.2708 12.74 88.0508 12.3 86.3908 11.98C85.3108 11.76 84.5508 11.54 84.5508 10.94C84.5508 10.38 85.1508 10.04 86.0708 10.04C87.2508 10.04 88.3508 10.54 88.9308 11.16L89.9308 9.42C88.9908 8.66 87.6908 8.1 86.0508 8.1C83.5108 8.1 82.0908 9.52 82.0908 11.14C82.0908 13.44 84.2308 13.84 85.8908 14.16C86.9908 14.38 87.8308 14.62 87.8308 15.3C87.8308 15.9 87.3108 16.28 86.2108 16.28C85.0108 16.28 83.5708 15.62 82.8708 14.96L81.7708 16.74ZM91.722 13.16C91.722 16.14 93.862 18.24 96.842 18.24C98.822 18.24 100.022 17.38 100.662 16.48L99.002 14.94C98.542 15.58 97.842 15.98 96.962 15.98C95.422 15.98 94.342 14.84 94.342 13.16C94.342 11.48 95.422 10.36 96.962 10.36C97.842 10.36 98.542 10.74 99.002 11.4L100.662 9.86C100.022 8.96 98.822 8.1 96.842 8.1C93.862 8.1 91.722 10.2 91.722 13.16ZM107.002 18.24C110.202 18.24 112.122 15.92 112.122 13.16C112.122 10.42 110.202 8.1 107.002 8.1C103.822 8.1 101.902 10.42 101.902 13.16C101.902 15.92 103.822 18.24 107.002 18.24ZM107.002 15.98C105.422 15.98 104.542 14.68 104.542 13.16C104.542 11.66 105.422 10.36 107.002 10.36C108.582 10.36 109.482 11.66 109.482 13.16C109.482 14.68 108.582 15.98 107.002 15.98ZM116.747 18V11.62C117.167 11 118.287 10.54 119.127 10.54C119.407 10.54 119.647 10.56 119.827 10.6V8.12C118.627 8.12 117.427 8.8 116.747 9.66V8.34H114.207V18H116.747ZM120.994 13.16C120.994 16.26 123.214 18.24 126.154 18.24C127.654 18.24 129.154 17.8 130.134 16.9L129.014 15.26C128.394 15.86 127.334 16.22 126.434 16.22C124.794 16.22 123.814 15.2 123.654 13.98H130.834V13.42C130.834 10.26 128.874 8.1 125.994 8.1C123.054 8.1 120.994 10.36 120.994 13.16ZM125.994 10.12C127.674 10.12 128.314 11.34 128.374 12.26H123.614C123.734 11.3 124.414 10.12 125.994 10.12Z" fill="#171C45"/>
</svg>
